<svg width="1437" height="1436" viewBox="0 0 1437 1436" fill="none" xmlns="http://www.w3.org/2000/svg">
<path d="M459.849 1030.93C562.264 938.855 611.889 876.323 687.225 752.146L716.737 778.379L718 779.502L719.263 778.379L748.646 752.261C813.843 879.198 864.253 940.882 976.138 1030.99C960.617 1165.96 968.26 1246.84 1003.55 1385.93C995.971 1387.29 988.596 1388.6 981.399 1389.87C919.61 1400.81 870.963 1409.42 818.771 1433.81L719.079 1365.06L718.035 1364.34L716.969 1365.03L610.323 1433.83C538.07 1400.28 499.031 1391.01 432.566 1385.72C467.351 1262.86 476.466 1182.49 459.849 1030.93Z" stroke="url(#paint0_linear_2_227)" stroke-width="3.8023"/>
<path d="M489.248 1041.34C580.187 959.573 624.306 903.991 691.187 793.774L717.23 816.923L718.493 818.046L719.756 816.923L745.671 793.888C803.559 906.549 848.385 961.383 947.726 1041.4C933.953 1161.27 940.739 1233.16 972.056 1356.64C965.397 1357.84 958.915 1358.99 952.588 1360.11C897.712 1369.82 854.467 1377.48 808.088 1399.13L719.572 1338.09L718.528 1337.37L717.462 1338.05L622.764 1399.15C558.677 1369.39 523.965 1361.14 465.048 1356.44C495.909 1247.37 503.994 1175.91 489.248 1041.34Z" stroke="url(#paint1_linear_2_227)" stroke-width="3.8023"/>
<path d="M633.36 1100.3C649.259 1186.73 670.596 1233.76 718.046 1314.4C765.578 1237.51 786.073 1190.71 802.654 1100.29C775.447 1077.24 758.189 1065.15 718.057 1049.58C680.35 1066.4 661.073 1077.27 633.36 1100.3Z" stroke="url(#paint2_linear_2_227)" stroke-width="3.8023"/>
<path d="M459.85 405.067C562.265 497.142 611.89 559.675 687.226 683.851L716.738 657.618L718.001 656.496L719.264 657.618L748.647 683.737C813.844 556.8 864.254 495.115 976.139 405.006C960.618 270.033 968.261 189.153 1003.55 50.0695C995.972 48.7039 988.597 47.3983 981.4 46.1243C919.611 35.1868 870.964 26.5756 818.772 2.18469L719.08 70.9376L718.036 71.6577L716.97 70.9701L610.324 2.16608C538.071 35.7217 499.032 44.9877 432.567 50.2745C467.352 173.133 476.467 253.509 459.85 405.067Z" stroke="url(#paint3_linear_2_227)" stroke-width="3.8023"/>
<path d="M489.248 394.659C580.188 476.425 624.306 532.007 691.187 642.225L717.231 619.075L718.494 617.952L719.757 619.075L745.671 642.11C803.56 529.449 848.386 474.616 947.727 394.597C933.953 274.733 940.74 202.834 972.056 79.3572C965.397 78.158 958.916 77.0106 952.589 75.8906C897.712 66.1769 854.467 58.522 808.088 36.8679L719.573 97.9128L718.529 98.6329L717.463 97.9453L622.764 36.8494C558.677 66.604 523.965 74.8595 465.048 79.5618C495.909 188.626 503.995 260.084 489.248 394.659Z" stroke="url(#paint4_linear_2_227)" stroke-width="3.8023"/>
<path d="M633.355 335.713C649.255 249.282 670.592 202.255 718.041 121.615C765.573 198.502 786.068 245.3 802.649 335.724C775.442 358.773 758.184 370.861 718.052 386.434C680.345 369.608 661.068 358.742 633.355 335.713Z" stroke="url(#paint5_linear_2_227)" stroke-width="3.8023"/>
<path d="M405.067 976.152C497.142 873.736 559.675 824.112 683.851 748.776L657.618 719.264L656.495 718.001L657.618 716.738L683.736 687.355C556.8 622.158 495.115 571.747 405.006 459.863C270.033 475.383 189.152 467.74 50.0693 432.45C48.7037 440.03 47.3981 447.405 46.1241 454.602C35.1866 516.39 26.5754 565.037 2.18451 617.23L70.9374 716.922L71.6575 717.966L70.9699 719.032L2.16589 825.678C35.7216 897.931 44.9875 936.969 50.2743 1003.43C173.133 968.65 253.509 959.535 405.067 976.152Z" stroke="url(#paint6_linear_2_227)" stroke-width="3.8023"/>
<path d="M394.656 946.767C476.423 855.827 532.005 811.709 642.222 744.828L619.072 718.785L617.95 717.521L619.072 716.258L642.108 690.344C529.447 632.455 474.613 587.63 394.594 488.288C274.73 502.062 202.831 495.275 79.3547 463.959C78.1554 470.618 77.0081 477.099 75.8881 483.426C66.1743 538.303 58.5194 581.548 36.8653 627.927L97.9103 716.442L98.6304 717.486L97.9427 718.552L36.8468 813.251C66.6014 877.338 74.8569 912.05 79.5593 970.967C188.624 940.106 260.082 932.02 394.656 946.767Z" stroke="url(#paint7_linear_2_227)" stroke-width="3.8023"/>
<path d="M335.714 802.642C249.283 786.743 202.256 765.406 121.616 717.956C198.503 670.424 245.301 649.929 335.725 633.349C358.774 660.555 370.862 677.813 386.435 717.945C369.609 755.652 358.742 774.93 335.714 802.642Z" stroke="url(#paint8_linear_2_227)" stroke-width="3.8023"/>
<path d="M1030.95 976.152C938.871 873.736 876.338 824.112 752.162 748.776L778.395 719.264L779.517 718.001L778.395 716.738L752.276 687.355C879.213 622.158 940.898 571.747 1031.01 459.863C1165.98 475.383 1246.86 467.74 1385.94 432.45C1387.31 440.03 1388.61 447.405 1389.89 454.602C1400.83 516.39 1409.44 565.037 1433.83 617.23L1365.08 716.922L1364.36 717.966L1365.04 719.032L1433.85 825.678C1400.29 897.931 1391.03 936.969 1385.74 1003.43C1262.88 968.65 1182.5 959.535 1030.95 976.152Z" stroke="url(#paint9_linear_2_227)" stroke-width="3.8023"/>
<path d="M1041.36 946.767C959.59 855.827 904.008 811.709 793.791 744.828L816.94 718.785L818.063 717.521L816.94 716.258L793.905 690.344C906.566 632.455 961.4 587.63 1041.42 488.288C1161.28 502.062 1233.18 495.275 1356.66 463.959C1357.86 470.618 1359 477.099 1360.12 483.426C1369.84 538.303 1377.49 581.548 1399.15 627.927L1338.1 716.442L1337.38 717.486L1338.07 718.552L1399.17 813.251C1369.41 877.338 1361.16 912.05 1356.45 970.967C1247.39 940.106 1175.93 932.02 1041.36 946.767Z" stroke="url(#paint10_linear_2_227)" stroke-width="3.8023"/>
<path d="M1100.3 802.642C1186.73 786.743 1233.76 765.406 1314.4 717.956C1237.51 670.424 1190.71 649.929 1100.29 633.349C1077.24 660.555 1065.15 677.813 1049.58 717.945C1066.4 755.652 1077.27 774.93 1100.3 802.642Z" stroke="url(#paint11_linear_2_227)" stroke-width="3.8023"/>
<defs>
<linearGradient id="paint0_linear_2_227" x1="718" y1="749.209" x2="718" y2="1436" gradientUnits="userSpaceOnUse">
<stop stop-color="#FBC046"/>
<stop offset="1" stop-color="#FFE0A0"/>
</linearGradient>
<linearGradient id="paint1_linear_2_227" x1="718.493" y1="790.836" x2="718.493" y2="1401.31" gradientUnits="userSpaceOnUse">
<stop stop-color="#FBC046"/>
<stop offset="1" stop-color="#FFE0A0"/>
</linearGradient>
<linearGradient id="paint2_linear_2_227" x1="718.006" y1="1318.07" x2="718.006" y2="1047.52" gradientUnits="userSpaceOnUse">
<stop stop-color="#FBC046"/>
<stop offset="1" stop-color="#FFE0A0"/>
</linearGradient>
<linearGradient id="paint3_linear_2_227" x1="718.001" y1="686.788" x2="718.001" y2="0" gradientUnits="userSpaceOnUse">
<stop stop-color="#FBC046"/>
<stop offset="1" stop-color="#FFE0A0"/>
</linearGradient>
<linearGradient id="paint4_linear_2_227" x1="718.494" y1="645.162" x2="718.494" y2="34.6833" gradientUnits="userSpaceOnUse">
<stop stop-color="#FBC046"/>
<stop offset="1" stop-color="#FFE0A0"/>
</linearGradient>
<linearGradient id="paint5_linear_2_227" x1="718.001" y1="117.94" x2="718.001" y2="388.493" gradientUnits="userSpaceOnUse">
<stop stop-color="#FBC046"/>
<stop offset="1" stop-color="#FFE0A0"/>
</linearGradient>
<linearGradient id="paint6_linear_2_227" x1="686.788" y1="718.001" x2="-0.000183105" y2="718.001" gradientUnits="userSpaceOnUse">
<stop stop-color="#FBC046"/>
<stop offset="1" stop-color="#FFE0A0"/>
</linearGradient>
<linearGradient id="paint7_linear_2_227" x1="645.159" y1="717.521" x2="34.6807" y2="717.521" gradientUnits="userSpaceOnUse">
<stop stop-color="#FBC046"/>
<stop offset="1" stop-color="#FFE0A0"/>
</linearGradient>
<linearGradient id="paint8_linear_2_227" x1="117.94" y1="717.996" x2="388.493" y2="717.996" gradientUnits="userSpaceOnUse">
<stop stop-color="#FBC046"/>
<stop offset="1" stop-color="#FFE0A0"/>
</linearGradient>
<linearGradient id="paint9_linear_2_227" x1="749.225" y1="718.001" x2="1436.01" y2="718.001" gradientUnits="userSpaceOnUse">
<stop stop-color="#FBC046"/>
<stop offset="1" stop-color="#FFE0A0"/>
</linearGradient>
<linearGradient id="paint10_linear_2_227" x1="790.854" y1="717.521" x2="1401.33" y2="717.521" gradientUnits="userSpaceOnUse">
<stop stop-color="#FBC046"/>
<stop offset="1" stop-color="#FFE0A0"/>
</linearGradient>
<linearGradient id="paint11_linear_2_227" x1="1318.07" y1="717.996" x2="1047.52" y2="717.996" gradientUnits="userSpaceOnUse">
<stop stop-color="#FBC046"/>
<stop offset="1" stop-color="#FFE0A0"/>
</linearGradient>
</defs>
</svg>
