<svg width="67" height="64" viewBox="0 0 67 64" fill="none" xmlns="http://www.w3.org/2000/svg">
<g opacity="0.5">
<path d="M13.9298 42.7537C9.74916 38.3105 6.88051 36.1258 1.28015 32.8668L2.37442 31.689L2.50806 31.5452L2.37442 31.4014L1.29347 30.2379C7.01381 27.4124 9.84675 25.1886 13.9366 20.338C20.0715 21.0078 23.7876 20.6762 30.0876 19.1543C30.1415 19.4414 30.1934 19.7221 30.2442 19.9971C30.7409 22.6822 31.1366 24.8212 32.2388 27.1047L29.127 31.4216L29.0408 31.5412L29.1232 31.6634L32.2409 36.2867C30.7463 39.3775 30.3094 41.0986 30.0647 43.9238C24.5042 42.4277 20.8075 42.0367 13.9298 42.7537Z" stroke="url(#paint0_linear_2_262)" stroke-width="0.422642"/>
<path d="M14.4073 41.4622C10.7001 37.5233 8.15076 35.5806 3.19126 32.6929L4.14397 31.6675L4.2776 31.5237L4.14397 31.3798L3.20456 30.3687C8.26953 27.8642 10.7877 25.8859 14.4141 21.5864C19.8552 22.1794 23.1588 21.8855 28.7422 20.5381C28.7884 20.7849 28.8331 21.0263 28.8768 21.263C29.3173 23.6445 29.669 25.5461 30.6457 27.5742L27.8878 31.4001L27.8016 31.5196L27.884 31.6418L30.6477 35.7403C29.3276 38.4724 28.9373 40.003 28.7194 42.4969C23.7921 41.1731 20.5051 40.8274 14.4073 41.4622Z" stroke="url(#paint1_linear_2_262)" stroke-width="0.422642"/>
<path d="M17.1169 35.1257C20.9559 34.4439 23.0916 33.5323 26.6477 31.5402C23.2597 29.5499 21.1322 28.6735 17.1156 27.9634C16.1047 29.1088 15.5647 29.8549 14.8769 31.5389C15.6212 33.1301 16.1113 33.9603 17.1169 35.1257Z" stroke="url(#paint2_linear_2_262)" stroke-width="0.422642"/>
<path d="M53.4706 42.7537C57.6512 38.3105 60.5199 36.1258 66.1202 32.8668L65.026 31.689L64.8923 31.5452L65.026 31.4014L66.1069 30.2379C60.3866 27.4124 57.5536 25.1886 53.4638 20.338C47.3289 21.0078 43.6128 20.6762 37.3128 19.1543C37.2589 19.4414 37.207 19.7221 37.1562 19.9971C36.6595 22.6822 36.2638 24.8212 35.1616 27.1047L38.2734 31.4216L38.3596 31.5412L38.2772 31.6634L35.1595 36.2867C36.6541 39.3775 37.091 41.0986 37.3357 43.9238C42.8962 42.4277 46.5929 42.0367 53.4706 42.7537Z" stroke="url(#paint3_linear_2_262)" stroke-width="0.422642"/>
<path d="M52.9921 41.4622C56.6993 37.5233 59.2487 35.5806 64.2082 32.6929L63.2554 31.6675L63.1218 31.5237L63.2554 31.3798L64.1949 30.3687C59.1299 27.8642 56.6117 25.8859 52.9853 21.5864C47.5442 22.1794 44.2407 21.8855 38.6572 20.5381C38.611 20.7849 38.5663 21.0263 38.5226 21.263C38.0821 23.6445 37.7304 25.5461 36.7537 27.5742L39.5117 31.4001L39.5978 31.5196L39.5154 31.6418L36.7517 35.7403C38.0718 38.4724 38.4621 40.003 38.68 42.4969C43.6073 41.1731 46.8943 40.8274 52.9921 41.4622Z" stroke="url(#paint4_linear_2_262)" stroke-width="0.422642"/>
<path d="M50.2859 35.1257C46.447 34.4439 44.3113 33.5323 40.7551 31.5402C44.1431 29.5499 46.2706 28.6735 50.2872 27.9634C51.2981 29.1088 51.8381 29.8549 52.526 31.5389C51.7816 33.1301 51.2915 33.9603 50.2859 35.1257Z" stroke="url(#paint5_linear_2_262)" stroke-width="0.422642"/>
<path d="M21.9765 50.9651C26.621 54.9657 28.9044 57.7117 32.315 63.0778L33.5634 62.0161L33.7003 61.8997L33.8372 62.0161L35.0715 63.0658C36.5355 60.3516 37.8464 58.3119 39.4182 56.4666C41.0142 54.5927 42.8735 52.9259 45.4227 50.9582C44.7247 45.0974 45.0711 41.5406 46.6577 35.5246C46.3572 35.4731 46.0634 35.4233 45.7757 35.3746C42.9638 34.8985 40.7282 34.52 38.3393 33.4623L33.8167 36.4463L33.7041 36.5206L33.5893 36.4498L28.7463 33.4604C25.5087 34.8945 23.7115 35.3122 20.7562 35.5463C22.3159 40.8569 22.7237 44.3956 21.9765 50.9651Z" stroke="url(#paint6_linear_2_262)" stroke-width="0.422642"/>
<path d="M23.3266 50.5085C27.4441 54.0563 29.4746 56.4968 32.497 61.2497L33.5861 60.3235L33.723 60.207L33.8599 60.3235L34.935 61.2377C36.2312 58.837 37.3941 57.0294 38.7877 55.3932C40.2057 53.7284 41.8568 52.2477 44.1181 50.5016C43.5003 45.3046 43.8073 42.1426 45.2115 36.8122C44.9531 36.7679 44.7004 36.7251 44.4527 36.6832C41.9582 36.2608 39.9707 35.9243 37.8488 34.9868L33.8394 37.6323L33.7268 37.7066L33.612 37.6357L29.3177 34.985C26.455 36.2521 24.8569 36.6253 22.2478 36.8338C23.6274 41.5386 23.9879 44.6852 23.3266 50.5085Z" stroke="url(#paint7_linear_2_262)" stroke-width="0.422642"/>
<path d="M29.9485 47.9196C30.6616 44.2514 31.6156 42.2104 33.7033 38.8009C35.7898 42.0493 36.7071 44.0821 37.4497 47.9209C36.2533 48.887 35.4713 49.4041 33.7044 50.0638C32.0363 49.35 31.1667 48.8809 29.9485 47.9196Z" stroke="url(#paint8_linear_2_262)" stroke-width="0.422642"/>
<path d="M21.9765 12.4312C26.621 8.43055 28.9044 5.68448 32.315 0.31844L33.5634 1.38014L33.7003 1.49656L33.8372 1.38014L35.0715 0.330442C36.5355 3.04459 37.8464 5.08431 39.4182 6.92967C41.0142 8.80354 42.8735 10.4703 45.4227 12.438C44.7247 18.2989 45.0711 21.8556 46.6577 27.8716C46.3572 27.9232 46.0634 27.9729 45.7757 28.0216C42.9638 28.4977 40.7282 28.8762 38.3393 29.934L33.8167 26.9499L33.7041 26.8756L33.5893 26.9464L28.7463 29.9358C25.5087 28.5017 23.7115 28.084 20.7562 27.8499C22.3159 22.5393 22.7237 19.0006 21.9765 12.4312Z" stroke="url(#paint9_linear_2_262)" stroke-width="0.422642"/>
<path d="M23.3266 12.8874C27.4441 9.33969 29.4746 6.89914 32.497 2.14624L33.5861 3.0725L33.723 3.18892L33.8599 3.0725L34.935 2.15823C36.2312 4.55891 37.3941 6.36653 38.7877 8.00275C40.2057 9.66754 41.8568 11.1482 44.1181 12.8943C43.5003 18.0914 43.8073 21.2534 45.2115 26.5838C44.9531 26.6281 44.7004 26.6709 44.4527 26.7128C41.9582 27.1351 39.9707 27.4716 37.8488 28.4091L33.8394 25.7637L33.7268 25.6894L33.612 25.7602L29.3177 28.4109C26.455 27.1438 24.8569 26.7707 22.2478 26.5622C23.6274 21.8574 23.9879 18.7108 23.3266 12.8874Z" stroke="url(#paint10_linear_2_262)" stroke-width="0.422642"/>
<path d="M29.9485 15.4764C30.6616 19.1445 31.6156 21.1856 33.7033 24.595C35.7898 21.3466 36.7071 19.3139 37.4497 15.4751C36.2533 14.509 35.4713 13.9918 33.7044 13.3321C32.0363 14.046 31.1667 14.5151 29.9485 15.4764Z" stroke="url(#paint11_linear_2_262)" stroke-width="0.422642"/>
</g>
<defs>
<linearGradient id="paint0_linear_2_262" x1="0.945312" y1="31.5452" x2="32.4841" y2="31.5452" gradientUnits="userSpaceOnUse">
<stop stop-color="#FBC046"/>
<stop offset="1" stop-color="#FFE0A0"/>
</linearGradient>
<linearGradient id="paint1_linear_2_262" x1="2.85645" y1="31.5237" x2="30.891" y2="31.5237" gradientUnits="userSpaceOnUse">
<stop stop-color="#FBC046"/>
<stop offset="1" stop-color="#FFE0A0"/>
</linearGradient>
<linearGradient id="paint2_linear_2_262" x1="27.0708" y1="31.5447" x2="14.6464" y2="31.5447" gradientUnits="userSpaceOnUse">
<stop stop-color="#FBC046"/>
<stop offset="1" stop-color="#FFE0A0"/>
</linearGradient>
<linearGradient id="paint3_linear_2_262" x1="66.4551" y1="31.5452" x2="34.9162" y2="31.5452" gradientUnits="userSpaceOnUse">
<stop stop-color="#FBC046"/>
<stop offset="1" stop-color="#FFE0A0"/>
</linearGradient>
<linearGradient id="paint4_linear_2_262" x1="64.543" y1="31.5237" x2="36.5085" y2="31.5237" gradientUnits="userSpaceOnUse">
<stop stop-color="#FBC046"/>
<stop offset="1" stop-color="#FFE0A0"/>
</linearGradient>
<linearGradient id="paint5_linear_2_262" x1="40.332" y1="31.5447" x2="52.7564" y2="31.5447" gradientUnits="userSpaceOnUse">
<stop stop-color="#FBC046"/>
<stop offset="1" stop-color="#FFE0A0"/>
</linearGradient>
<linearGradient id="paint6_linear_2_262" x1="33.7003" y1="63.3962" x2="33.7003" y2="33.2221" gradientUnits="userSpaceOnUse">
<stop stop-color="#FBC046"/>
<stop offset="1" stop-color="#FFE0A0"/>
</linearGradient>
<linearGradient id="paint7_linear_2_262" x1="33.723" y1="61.5681" x2="33.723" y2="34.7466" gradientUnits="userSpaceOnUse">
<stop stop-color="#FBC046"/>
<stop offset="1" stop-color="#FFE0A0"/>
</linearGradient>
<linearGradient id="paint8_linear_2_262" x1="33.699" y1="38.4045" x2="33.699" y2="50.2913" gradientUnits="userSpaceOnUse">
<stop stop-color="#FBC046"/>
<stop offset="1" stop-color="#FFE0A0"/>
</linearGradient>
<linearGradient id="paint9_linear_2_262" x1="33.7003" y1="0" x2="33.7003" y2="30.1742" gradientUnits="userSpaceOnUse">
<stop stop-color="#FBC046"/>
<stop offset="1" stop-color="#FFE0A0"/>
</linearGradient>
<linearGradient id="paint10_linear_2_262" x1="33.723" y1="1.82782" x2="33.723" y2="28.6493" gradientUnits="userSpaceOnUse">
<stop stop-color="#FBC046"/>
<stop offset="1" stop-color="#FFE0A0"/>
</linearGradient>
<linearGradient id="paint11_linear_2_262" x1="33.699" y1="24.9915" x2="33.699" y2="13.1047" gradientUnits="userSpaceOnUse">
<stop stop-color="#FBC046"/>
<stop offset="1" stop-color="#FFE0A0"/>
</linearGradient>
</defs>
</svg>
